M48
; DRILL file {KiCad 9.0.6} date 2026-02-20T10:05:54+0530
; FORMAT={-:-/ absolute / inch / decimal}
; #@! TF.CreationDate,2026-02-20T10:05:54+05:30
; #@! TF.GenerationSoftware,Kicad,Pcbnew,9.0.6
; #@! TF.FileFunction,Plated,1,2,PTH
FMAT,2
INCH
; #@! TA.AperFunction,Plated,PTH,ViaDrill
T1C0.0118
; #@! TA.AperFunction,Plated,PTH,ViaDrill
T2C0.0197
; #@! TA.AperFunction,Plated,PTH,ComponentDrill
T3C0.0197
; #@! TA.AperFunction,Plated,PTH,ComponentDrill
T4C0.0236
; #@! TA.AperFunction,Plated,PTH,ComponentDrill
T5C0.0315
; #@! TA.AperFunction,Plated,PTH,ComponentDrill
T6C0.0433
%
G90
G05
T1
X0.5138Y-0.7776
X0.5177Y-0.6339
X0.5177Y-1.189
X0.5177Y-1.3091
X0.5177Y-1.4055
X0.5197Y-0.9567
X0.5197Y-1.0768
X0.5217Y-2.4764
X0.5236Y-2.0945
X0.5236Y-2.2402
X0.5236Y-2.376
X0.5256Y-2.75
X0.5256Y-3.0335
X0.5256Y-3.1713
X0.5276Y-0.5295
X0.5276Y-2.6142
X0.5276Y-2.8996
X0.5276Y-3.315
X0.5295Y-3.4567
X0.5295Y-3.5827
X0.5866Y-3.6614
X0.6339Y-0.5138
X0.6732Y-0.8287
X0.6752Y-0.8996
X0.7421Y-0.9213
X0.7598Y-0.9823
X0.7874Y-0.5157
X0.8228Y-3.6575
X0.8504Y-0.8996
X0.8858Y-0.874
X0.8996Y-0.9626
X0.9094Y-0.5177
X0.9272Y-0.8445
X0.9449Y-1.0079
X0.9685Y-0.9409
X0.9724Y-1.0846
X1.0157Y-0.8976
X1.0177Y-0.5157
X1.0315Y-1.124
X1.0787Y-3.6634
X1.0984Y-0.8169
X1.0984Y-0.9035
X1.1102Y-1.126
X1.1732Y-1.0512
X1.187Y-0.8976
X1.2087Y-0.9488
X1.2579Y-1.6535
X1.2894Y-1.7815
X1.2933Y-0.9488
X1.3091Y-0.8642
X1.315Y-3.6673
X1.3406Y-0.7382
X1.3504Y-0.8189
X1.372Y-0.9508
X1.3878Y-1.8484
X1.4114Y-1.4094
X1.4272Y-1.8976
X1.4469Y-1.6614
X1.4488Y-1.4528
X1.4488Y-1.7894
X1.4665Y-1.5394
X1.4665Y-1.6201
X1.4783Y-0.7598
X1.4783Y-1.9488
X1.4902Y-0.8327
X1.4941Y-0.5728
X1.5098Y-0.5079
X1.5157Y-1.7913
X1.5236Y-1.5335
X1.5236Y-1.8976
X1.5256Y-1.9941
X1.5335Y-0.7067
X1.5354Y-0.7894
X1.5374Y-3.6713
X1.5669Y-1.8425
X1.5689Y-2.0394
X1.5787Y-0.8327
X1.5866Y-0.75
X1.6024Y-1.6142
X1.6063Y-1.9921
X1.6161Y-1.8898
X1.622Y-0.5079
X1.6496Y-1.9567
X1.6575Y-0.7795
X1.6575Y-0.8465
X1.6575Y-1.2559
X1.6575Y-1.2874
X1.6594Y-1.6772
X1.687Y-0.5413
X1.7185Y-0.5059
X1.7283Y-1.7461
X1.7756Y-3.6752
X1.7972Y-1.8189
X1.8287Y-1.0807
X1.8307Y-0.9902
X1.8386Y-0.8169
X1.8445Y-0.8642
X1.874Y-1.124
X1.878Y-1.4469
X1.8898Y-1.9232
X1.9035Y-0.9567
X1.9035Y-1.2795
X1.9134Y-0.5079
X1.9173Y-1.8327
X1.939Y-1.3091
X1.9449Y-1.2421
X1.9469Y-1.063
X1.9488Y-1.002
X1.9528Y-1.502
X2.002Y-1.8386
X2.002Y-3.6713
X2.0846Y-0.811
X2.0846Y-1.1417
X2.0866Y-1.0118
X2.0866Y-1.3524
X2.0886Y-1.248
X2.0886Y-1.435
X2.0925Y-1.5965
X2.0945Y-1.8386
X2.0965Y-1.6831
X2.1437Y-1.0571
X2.1476Y-1.3858
X2.1496Y-3.4114
X2.1673Y-1.9114
X2.187Y-1.1457
X2.1969Y-1.2323
X2.1969Y-1.3465
X2.2008Y-1.4449
X2.2008Y-1.5984
X2.2028Y-1.6929
X2.25Y-1.8445
X2.2618Y-3.6791
X2.2677Y-1.8976
X2.313Y-1.8366
X2.4862Y-3.6811
X2.6535Y-3.6831
X2.7106Y-1.7224
X2.7106Y-1.8346
X2.7106Y-1.9311
X2.7165Y-2.063
X2.7165Y-2.1654
X2.7283Y-1.624
X2.7382Y-2.7795
X2.7598Y-2.3661
X2.7657Y-1.1024
X2.7657Y-2.7224
X2.7697Y-1.0374
X2.7736Y-0.9035
X2.8012Y-1.5492
X2.813Y-3.685
X2.815Y-2.7343
X2.8228Y-0.5138
X2.8248Y-1.1594
X2.8465Y-0.9724
X2.8563Y-1.7362
X2.8563Y-1.8878
X2.8602Y-2.6339
X2.8622Y-2.5059
X2.8642Y-2.3642
X2.8996Y-1.6614
X2.9252Y-0.5138
X2.9252Y-1.0472
X2.9272Y-1.8012
X2.9606Y-1.1949
X2.9665Y-1.5984
X2.9783Y-3.689
X2.9902Y-1.8957
X2.9941Y-1.1122
X3.0039Y-1.2106
X3.0039Y-1.3268
X3.0039Y-1.4114
X3.0039Y-1.5098
X3.0709Y-0.5118
X3.1299Y-3.6929
X3.187Y-0.5098
X3.2224Y-2.811
X3.2224Y-2.9764
X3.2224Y-3.4803
X3.2244Y-0.6181
X3.2244Y-3.1339
X3.2244Y-3.313
X3.2264Y-0.748
X3.2264Y-2.6398
X3.2264Y-3.6535
X3.2283Y-0.8898
X3.2283Y-1.0276
X3.2283Y-1.1693
X3.2283Y-1.315
X3.2283Y-1.9803
X3.2283Y-2.2874
X3.2283Y-2.4626
X3.2303Y-1.4882
X3.2303Y-1.6516
X3.2303Y-1.811
X3.2303Y-2.1358
T2
X1.2224Y-1.1102
X1.2224Y-2.8091
T3
X1.6043Y-1.3858
X1.6535Y-1.3858
X1.7028Y-1.3858
X1.752Y-1.3858
X1.8012Y-1.3858
T5
X1.0217Y-0.998
X1.1004Y-0.998
T6
X1.6083Y-0.9114
X1.6083Y-1.1673
X1.7854Y-0.9114
X1.7854Y-1.1673
X2.8425Y-1.2815
X2.8425Y-1.4587
X3.0984Y-1.2815
X3.0984Y-1.4587
T4
G00X0.6331Y-0.623
M15
G01X0.6331Y-0.5915
M16
G05
G00X0.6331Y-0.7935
M15
G01X0.6331Y-0.7502
M16
G05
G00X0.9732Y-0.623
M15
G01X0.9732Y-0.5915
M16
G05
G00X0.9732Y-0.7935
M15
G01X0.9732Y-0.7502
M16
G05
M30
